# xmcd
#
# Track frame offsets: 
#        150
#        13051
#        32032
#        47433
#        63238
#        77039
#        99478
#        111843
#        129117
#        145864
#        168488
#        185641
#        205828
#        222741
#        240732
#        256487
#        290496
#        304611
#        321823
#        344601
#
# Disc length: 4760 seconds
#
# Revision: 0
# Processed by: cddbd v1.5.2PL0 Copyright (c) Steve Scherf et al.
# Submitted via: ExactAudioCopy v1.1
#
DISCID=27129614
DTITLE=Various Artist - 40 Keer Pompen - CD 2
DYEAR=2017
DGENRE=Hip-Hop
TTITLE0=Jebroer - Me Gabber
TTITLE1=Donnie - De Tuinslang
TTITLE2=Mr. Polska and Boaz Van De Beatz - Hausa Wausa
TTITLE3=Marshall Masters Feat. The Ultimate MC - I Like It Loud
TTITLE4=Technohead - I Wanna Be A Hippy
TTITLE5=DJ Frank - To The Left, To The Right
TTITLE6=DJ Maurice Feat. Boldheadz - Tomatenplukkers
TTITLE7=DJ Paul Elstak - Luv U More
TTITLE8=Charly Lownoise and Mental Theo - Wonderful Days
TTITLE9=DJ Isaac - Face Down, Ass Up
TTITLE10=For A Jumper - For An Angel
TTITLE11=Robert Armani - Hit Hard
TTITLE12=Da Boy Tommy - Halloween
TTITLE13=2 Brothers On The 4th Floor - Come Take My Hand
TTITLE14=Marusha - Over The Rainbow
TTITLE15=Dyewitness and The Nightraver - The Future
TTITLE16=Mark With A K and Warface Feat. MC Alee - Fear Of The Dark
TTITLE17=De Staat - Witch Doctor (DJ Paul Elstak Hardcore Mix)
TTITLE18=Paul Elstak Feat. Beatstream and Radiate - Angels Deserve To Di
TTITLE18=e
TTITLE19=D-Fence - Pompen
EXTD=
EXTT0=
EXTT1=
EXTT2=
EXTT3=
EXTT4=
EXTT5=
EXTT6=
EXTT7=
EXTT8=
EXTT9=
EXTT10=
EXTT11=
EXTT12=
EXTT13=
EXTT14=
EXTT15=
EXTT16=
EXTT17=
EXTT18=
EXTT19=
PLAYORDER=
